<?xml version="1.0" encoding="utf-8"?>
<!-- Generator: Adobe Illustrator 16.0.0, SVG Export Plug-In . SVG Version: 6.00 Build 0)  -->
<!DOCTYPE svg PUBLIC "-//W3C//DTD SVG 1.1//EN" "http://www.w3.org/Graphics/SVG/1.1/DTD/svg11.dtd">
<svg version="1.1" id="Layer_1" xmlns="http://www.w3.org/2000/svg" xmlns:xlink="http://www.w3.org/1999/xlink" x="0px" y="0px"
	 width="34.853px" height="32.225px" viewBox="4.5 6.43 34.853 32.225" enable-background="new 4.5 6.43 34.853 32.225"
	 xml:space="preserve">
<g>
	<g>
		<path fill="#E05D4D" stroke="#E05D4D" stroke-width="1.0664" stroke-miterlimit="10" d="M20.47,38.122
			c-8.343,0-15.437-7.021-15.437-15.539c0-8.563,7.05-15.586,15.437-15.586c8.387,0,15.436,7.023,15.436,15.586
			C35.906,31.098,28.813,38.122,20.47,38.122z M20.47,8.855c-7.406,0-13.43,6.252-13.43,13.728c0,7.43,6.068,13.729,13.43,13.729
			c7.359,0,13.429-6.252,13.429-13.729C33.898,15.106,27.875,8.855,20.47,8.855z"/>
	</g>
	<g>
		<g>
			<path fill="#4E5860" stroke="#4E5860" stroke-width="1.0664" stroke-miterlimit="10" d="M23.382,38.088
				c-8.342,0-15.437-7.021-15.437-15.539c0-8.563,7.05-15.585,15.437-15.585c8.389,0,15.438,7.023,15.438,15.585
				C38.82,31.067,31.727,38.088,23.382,38.088z M23.382,8.824c-7.405,0-13.428,6.251-13.428,13.727
				c0,7.431,6.067,13.728,13.428,13.728c7.363,0,13.43-6.252,13.43-13.728C36.812,15.074,30.791,8.824,23.382,8.824z"/>
		</g>
	</g>
	<g>
		<path fill="#E05D4D" stroke="#E05D4D" stroke-width="0.5332" stroke-miterlimit="10" d="M33.898,22.549
			c0,7.476-6.068,13.728-13.429,13.728c-7.362,0-13.43-6.297-13.43-13.728c0-0.239-2.008-0.268-2.008,0
			c0,8.519,7.094,15.541,15.437,15.541c8.343,0,15.436-7.022,15.436-15.541C35.905,22.338,33.898,22.416,33.898,22.549z"/>
	</g>
</g>
</svg>
