<?xml version="1.0" encoding="utf-8"?>
<!-- Generator: Adobe Illustrator 16.0.0, SVG Export Plug-In . SVG Version: 6.00 Build 0)  -->
<!DOCTYPE svg PUBLIC "-//W3C//DTD SVG 1.1//EN" "http://www.w3.org/Graphics/SVG/1.1/DTD/svg11.dtd">
<svg version="1.1" id="Layer_1" xmlns="http://www.w3.org/2000/svg" xmlns:xlink="http://www.w3.org/1999/xlink" x="0px" y="0px"
	 width="169.545px" height="38.006px" viewBox="1.5 3.431 169.545 38.006" enable-background="new 1.5 3.431 169.545 38.006"
	 xml:space="preserve">
<rect x="-41" y="-54" display="none" fill="#2A2A2A" width="558" height="230"/>
<g>
	<path fill="#E05D4D" stroke="#E05D4D" stroke-width="1.0664" stroke-miterlimit="10" d="M17.47,35.122
		c-8.343,0-15.437-7.021-15.437-15.539c0-8.563,7.05-15.586,15.437-15.586c8.387,0,15.436,7.023,15.436,15.586
		C32.906,28.099,25.813,35.122,17.47,35.122z M17.47,5.855c-7.406,0-13.43,6.252-13.43,13.728c0,7.43,6.068,13.729,13.43,13.729
		c7.36,0,13.429-6.252,13.429-13.729C30.898,12.106,24.875,5.855,17.47,5.855z"/>
</g>
<g>
	<g>
		<path fill="#4E5860" stroke="#4E5860" stroke-width="1.0664" stroke-miterlimit="10" d="M20.383,35.088
			c-8.343,0-15.437-7.021-15.437-15.539c0-8.563,7.05-15.585,15.437-15.585c8.388,0,15.437,7.023,15.437,15.585
			C35.82,28.067,28.727,35.088,20.383,35.088z M20.383,5.824c-7.406,0-13.429,6.251-13.429,13.727
			c0,7.431,6.067,13.728,13.429,13.728c7.362,0,13.429-6.252,13.429-13.728C33.812,12.074,27.79,5.824,20.383,5.824z"/>
	</g>
</g>
<g>
	<path fill="#E05D4D" stroke="#E05D4D" stroke-width="0.5332" stroke-miterlimit="10" d="M30.898,19.549
		c0,7.476-6.068,13.728-13.429,13.728c-7.362,0-13.43-6.297-13.43-13.728c0-0.239-2.008-0.268-2.008,0
		c0,8.519,7.094,15.541,15.437,15.541c8.343,0,15.436-7.022,15.436-15.541C32.905,19.338,30.898,19.416,30.898,19.549z"/>
</g>
<g>
	<path fill="#4E5860" d="M58.083,28.75c-1.532,1.265-3.297,1.896-5.295,1.896h-6.66v10.229h-3.597V16.859h10.257
		c1.999,0,3.752,0.622,5.262,1.865c1.576,1.376,2.365,3.052,2.365,5.028C60.415,25.75,59.637,27.417,58.083,28.75z M55.552,21.354
		c-0.799-0.601-1.721-0.898-2.765-0.898h-6.66v6.594h6.66c1.043,0,1.965-0.301,2.765-0.898c0.821-0.616,1.232-1.42,1.232-2.396
		C56.784,22.776,56.373,21.978,55.552,21.354z"/>
	<path fill="#4E5860" d="M84.458,37.741c-2.51,2.465-5.473,3.695-8.892,3.695c-3.464,0-6.427-1.23-8.892-3.695
		c-2.464-2.465-3.696-5.43-3.696-8.893c0-3.418,1.231-6.386,3.696-8.896c2.465-2.463,5.428-3.696,8.892-3.696
		c3.419,0,6.382,1.232,8.892,3.696c2.462,2.51,3.696,5.478,3.696,8.896C88.154,32.312,86.922,35.276,84.458,37.741z M81.927,22.487
		c-1.776-1.73-3.896-2.598-6.361-2.598c-2.487,0-4.607,0.864-6.361,2.598c-1.754,1.801-2.631,3.922-2.631,6.361
		c0,2.438,0.877,4.563,2.631,6.358c1.798,1.754,3.918,2.631,6.361,2.631c2.442,0,4.563-0.877,6.361-2.631
		c1.732-1.754,2.598-3.875,2.598-6.358C84.525,26.383,83.659,24.265,81.927,22.487z"/>
	<path fill="#4E5860" d="M91.75,40.872V16.859h3.598v24.013H91.75z"/>
	<path fill="#4E5860" d="M99.676,40.872V16.859h17.019v3.597h-13.421v6.594h10.49v3.598h-10.49v6.597h13.421v3.629L99.676,40.872
		L99.676,40.872z"/>
	<path fill="#4E5860" d="M136.709,39.741c-1.864,1.131-3.984,1.695-6.36,1.695c-2.396,0-4.509-0.578-6.328-1.73
		c-2.222-1.354-3.33-3.297-3.33-5.828h3.599c0,1.512,0.697,2.576,2.1,3.197c1.152,0.512,2.475,0.766,3.963,0.766
		c1.529,0,2.861-0.254,3.997-0.766c1.376-0.645,2.063-1.6,2.063-2.863c0-1.602-1.223-2.666-3.662-3.197h0.03
		c-0.62-0.111-1.229-0.227-1.829-0.35c-0.602-0.123-1.213-0.25-1.832-0.383h0.03c-1.196-0.225-2.387-0.469-3.563-0.734
		c-2.885-1.064-4.33-3.107-4.33-6.127c0-2.219,1.013-4.02,3.031-5.396c1.774-1.177,3.797-1.765,6.063-1.765
		c2.284,0,4.308,0.588,6.063,1.765c2.021,1.354,3.028,3.274,3.028,5.763h-3.596c0-1.42-0.622-2.443-1.866-3.063
		c-1.043-0.559-2.253-0.834-3.629-0.834c-1.354,0-2.563,0.267-3.63,0.799h0.032c-1.243,0.646-1.863,1.556-1.863,2.729
		c0,1.666,1.22,2.768,3.66,3.297c0.602,0.137,1.205,0.264,1.816,0.387c0.608,0.123,1.225,0.25,1.848,0.383
		c0.602,0.134,1.188,0.267,1.767,0.396c0.578,0.135,1.179,0.258,1.798,0.365c2.844,1.063,4.266,3.053,4.266,5.961
		C140.042,36.542,138.93,38.383,136.709,39.741z"/>
	<path fill="#4E5860" d="M144.069,40.872V16.859h3.598v24.013H144.069z"/>
	<path fill="#4E5860" d="M167.713,39.741c-1.864,1.131-3.984,1.695-6.36,1.695c-2.396,0-4.508-0.578-6.328-1.73
		c-2.22-1.354-3.33-3.297-3.33-5.828h3.599c0,1.512,0.699,2.576,2.1,3.197c1.152,0.512,2.479,0.766,3.963,0.766
		c1.529,0,2.861-0.254,3.997-0.766c1.375-0.645,2.063-1.6,2.063-2.863c0-1.602-1.223-2.666-3.664-3.197h0.033
		c-0.621-0.111-1.232-0.227-1.832-0.35c-0.601-0.123-1.209-0.25-1.832-0.383h0.031c-1.195-0.225-2.387-0.469-3.563-0.734
		c-2.887-1.064-4.33-3.107-4.33-6.127c0-2.219,1.011-4.02,3.031-5.396c1.772-1.177,3.795-1.765,6.062-1.765
		c2.286,0,4.308,0.588,6.062,1.765c2.021,1.354,3.029,3.274,3.029,5.763h-3.596c0-1.42-0.622-2.443-1.866-3.063
		c-1.043-0.559-2.254-0.834-3.629-0.834c-1.354,0-2.563,0.267-3.63,0.799h0.031c-1.242,0.646-1.863,1.556-1.863,2.729
		c0,1.666,1.22,2.768,3.663,3.297c0.599,0.137,1.204,0.264,1.813,0.387c0.608,0.123,1.229,0.25,1.85,0.383
		c0.6,0.134,1.188,0.267,1.766,0.396c0.578,0.135,1.178,0.258,1.799,0.365c2.842,1.063,4.264,3.053,4.264,5.961
		C171.042,36.542,169.933,38.383,167.713,39.741z"/>
</g>
<rect x="89.481" y="12.382" fill="#4E5860" width="2.604" height="2.168"/>
<rect x="94.858" y="12.382" fill="#4E5860" width="2.604" height="2.168"/>
<rect x="144.075" y="12.382" fill="#4E5860" width="3.6" height="2.168"/>
</svg>
